<?xml version="1.0" encoding="UTF-8"?>
<svg id="Layer_1" xmlns="http://www.w3.org/2000/svg" version="1.1" xmlns:xlink="http://www.w3.org/1999/xlink" viewBox="0 0 604.5 422.5">
  <!-- Generator: Adobe Illustrator 29.1.0, SVG Export Plug-In . SVG Version: 2.1.0 Build 142)  -->
  <defs>
    <style>
      .st0 {
        fill: #fff;
      }

      .st1 {
        isolation: isolate;
      }

      .st2 {
        display: none;
      }
    </style>
  </defs>
  <g id="Layer_11" class="st2">
    <image class="st1" width="1024" height="1024" transform="translate(-801.5 -226.6)" xlink:href="fishbonefish-1.png"/>
  </g>
  <g id="Layer_3">
    <path d="M51.6,172.4l11.6,54.7c.5,2.2,3.5,2.7,4.6.8l18.4-31c1.2-2,4.2-1.5,4.6.8l8.5,39.3c.5,2.1,3.2,2.7,4.5,1l16.9-22.7c1.2-1.6,3.7-1.2,4.4.6l11.9,33.3c.7,1.9,3.1,2.3,4.3.7l15-18.5c1.3-1.6,3.9-1,4.4,1l5.7,23.3c.5,2,3,2.6,4.3,1.1l17.6-19.9c1.1-1.2.7-3.2-.8-3.9l-132.4-63.4c-1.9-.9-4,.8-3.5,2.8h0Z"/>
    <path d="M75.3,352.2l6.1-55.6c.2-2.3,3.2-3.1,4.5-1.2l21.4,29c1.4,1.8,4.3,1.1,4.5-1.2l4.5-39.9c.2-2.1,2.9-3,4.4-1.4l19,21c1.4,1.5,3.8.9,4.3-1.1l8.5-34.3c.5-1.9,2.9-2.6,4.2-1.2l16.7,17c1.5,1.5,4,.6,4.3-1.4l3.3-23.8c.3-2,2.7-2.9,4.2-1.5l19.5,18c1.2,1.1,1,3.1-.4,4l-125.4,76.1c-1.8,1.1-4-.3-3.8-2.4h.2Z"/>
  </g>
  <g id="Layer_5">
    <path d="M281,208.4h257c10.8,0,19.5,8.7,19.5,19.5h0c0,10.8-8.7,19.5-19.5,19.5h-257c-10.8,0-19.5-8.7-19.5-19.5h0c0-10.8,8.7-19.5,19.5-19.5Z"/>
  </g>
  <g id="Layer_9">
    <g>
      <path d="M30.5,172.4c-2,13.3,20.1,14.4,29.3,16.9,45.5,10,97.7,25.6,136.1,50.3,6.3,4.1,14.3,10.1,12.8,18.3-2.5,12.5-28.4,29.8-40.2,37.5-12.5,7.9-24.4,13.6-37.9,20.7-14.2,7.3-26.2,14.1-39.4,20.6-6.2,2.9-11.3,4.9-18.3,8.5-13.6,7.2-23.9,14.6-6.5,23.8,66.3,33,116.9,42.9,202.6,39.1,21.3-.7,43-2,63.8-8.3,21.2-5.7,49-21,60-33.6,4.4-4.8-.3-7-3.8-9.8-5-3.7-32.6-21.1-48.1-67.6-7-21-12-32-9-62,4.8-47.7,8.5-47.8,37-110,16-35,59.6-79.3,55-81-8-3-15.5-3.7-21.7-4.1-3.5-.2-7.5-.3-11.5-.4-132-2.5-266.8,31.1-354.4,130.1-3,3.6-5.3,7.4-5.9,10.8h0c0,.1,0,.2,0,.2Z"/>
      <path d="M29,172c-1.4,10.3,9.2,14.1,17.4,16,4.2,1,8.6,1.7,12.8,2.7,7.2,1.7,14.4,3.3,21.5,5,30.2,7.6,60.2,17,88.2,30.6,6.8,3.3,13.4,6.8,19.8,10.6,5.7,3.4,12.2,6.9,16.2,12.3,1.8,2.5,2.9,5.5,2.2,8.6-.5,2.1-1.5,4-2.7,5.8-3.1,4.7-7.3,8.6-11.6,12.2-9.1,7.8-19.2,14.8-29.5,21-14.3,8.6-29.5,15.8-44.3,23.7-7.4,3.9-14.8,7.9-22.2,11.8-7,3.6-14.3,6.6-21.4,10.1-5.6,2.7-11.8,5.8-16.3,10.2-3.1,3-4.7,7.2-2.1,11.1,3.7,5.6,11.2,8.2,17,10.9,6.3,3,12.7,5.9,19.2,8.7,12,5.1,24.2,9.6,36.7,13.3,25,7.5,50.9,11.6,77,13.2,15,.9,30,1,45,.6,17-.4,34.2-.8,51.1-2.9,29.3-3.5,58.5-13.7,82-31.9,2.3-1.8,4.5-3.6,6.5-5.6,1.8-1.8,4.2-3.9,4.6-6.6.6-4.2-4.4-6.8-7.3-8.8-4.6-3.3-8.9-6.8-13-10.7-7.5-7.2-13.9-15.5-19.3-24.4-7.4-12.2-12.2-25.3-16.8-38.7-3.6-10.8-6.6-21.5-7.1-33-.5-12.9,1.1-26,2.9-38.7,1.1-8.2,2.7-16.3,5.1-24.2s5.8-15.7,9.2-23.3c5.3-11.7,10.9-23.3,16.3-35,2.9-6.3,5.8-12.7,9.2-18.8,3.1-5.5,6.5-10.8,10-16,7.1-10.4,14.7-20.3,22.5-30.1,5.3-6.7,11.1-13.3,15.8-20.5.9-1.4,2.6-3.5,2.1-5.3s-2.8-2-4.2-2.4c-3.7-1.2-7.5-1.9-11.3-2.4-7.7-1-15.4-1.1-23.1-1.2-7.2-.1-14.3,0-21.4,0-28.8.5-57.5,2.8-85.9,7.1-28,4.3-55.7,10.8-82.6,19.7s-52,20-76.1,34-46.7,30.8-66.8,50.1c-4.9,4.7-9.6,9.5-14.2,14.5s-9.7,10-10.9,16.7c-.3,1.9,2.5,2.7,2.9.8,1.2-7,7.4-12.5,12-17.4s9.7-10,14.8-14.8c10.1-9.5,20.9-18.4,32.1-26.6,22.1-16.1,46-29.6,71.1-40.6s51.9-19.6,78.8-25.8,55.5-10.5,83.7-12.8c14-1.1,28.1-1.8,42.2-2,7.2-.1,14.3-.1,21.4,0,7.6.1,15.3.1,22.8,1.3,1.9.3,3.8.6,5.7,1.1.9.2,1.9.5,2.8.7s2.6,1.2,3.6,1.2.3.4,0-.2c0-.2-.2-.4,0-.4,0,0,.2-.2,0,0,0,.1,0,.4-.2.5-.2.4-.9,1.7-1.4,2.4-.8,1.2-1.7,2.4-2.6,3.6-5.8,7.8-12,15.2-17.9,22.8-7.7,9.9-15.2,19.9-21.9,30.4-3.3,5.1-6.4,10.4-9.2,15.9-3.4,6.7-6.3,13.5-9.5,20.3-4.9,10.5-10,21-14.7,31.6-3.2,7.3-6.3,14.8-8.5,22.5-2.3,8-3.6,16.2-4.7,24.4-1.7,12.8-3.3,25.8-2.5,38.7.7,11.1,3.7,21.6,7.2,32.1,4.4,13.1,9.1,25.8,16.1,37.8,8.5,14.4,19.6,27.2,33.2,36.9.6.4,1.2.9,1.8,1.3,1.5,1.1,4.8,2.8,5.1,4.9.3,2.2-3.6,5.2-5.1,6.5-2.2,2-4.5,3.9-6.9,5.6-11.2,8.2-23.9,14.9-36.9,19.9-15,5.8-30.9,8.9-46.9,10.5-16.5,1.6-33.1,2.1-49.6,2.3-27.8.5-55.7-.7-83-5.6-25.1-4.5-49.5-12.3-72.8-22.4-6.3-2.7-12.5-5.6-18.7-8.6-3.4-1.7-7-3.2-10-5.4-1.8-1.3-4.2-3.3-4.3-5.7,0-2,1.4-3.8,2.8-5.1,2.1-2,4.5-3.6,7-5,6.3-3.8,13.1-6.7,19.8-9.7,15-6.8,29.4-15.2,44-22.8,13.6-7.1,27.4-13.8,40.1-22.3,9.6-6.4,19.2-13.1,27.5-21.2,3.5-3.5,7.1-7.4,9.1-12,2.2-5.1,1.1-10.3-2.3-14.6-4-5.1-10-8.5-15.5-11.8-6.2-3.8-12.6-7.2-19.1-10.4-13.5-6.6-27.5-12.3-41.7-17.2-26.1-9.1-53-16-80-21.6-6.6-1.4-19.9-3.7-18.6-13,.2-1.9-2.6-2.7-2.9-.8h0l-.3-.2Z"/>
    </g>
  </g>
  <g id="Layer_6">
    <g>
      <path d="M469.6,39.4c-40.2,29.3-66.2,72.9-81.9,119.4-7.6,22.6-12.1,47.3-12.1,71.2s3.4,37.8,7.8,56.3c3.3,13.8,7.1,27.6,13.7,40.2,6.3,12.1,15.3,23.1,27.1,30.2.5.3,1-.2.8-.7-11.5-21.1-19.4-53.9-21.3-77.2-2.5-31-4-62,2.4-92,12.1-56,35.9-101.4,71.8-148.2.7-.9,0-2.1-1.1-2.1-2.7,0-4.6.9-7.3,2.9"/>
      <path d="M468.8,38.1c-17.8,13-33.1,29-45.9,46.9s-23,37.6-31,58.1c-9.1,23-15.3,47.1-17.2,71.9-1,13.1-.6,26.3,1.1,39.4s4.5,26.1,7.8,39c5.8,22.8,14.9,46.2,34.2,60.9,1.1.8,2.2,1.7,3.4,2.4,1,.7,2.3,1.8,3.5,1.7,3.2-.4,1-3.9.2-5.4-2.3-4.6-4.4-9.3-6.2-14.1-4-10.5-7-21.3-9.4-32.3s-3.8-21.2-4.6-32c-1.1-13.5-1.9-27-1.8-40.5s.9-26.9,3.2-40.1c2.1-11.8,5.1-23.4,8.6-34.8,6.6-21.6,15.5-42.4,26.3-62.2,5.5-10.1,11.5-19.9,17.9-29.5,3.3-4.9,6.7-9.8,10.1-14.6,1.7-2.4,3.5-4.8,5.3-7.2.9-1.2,1.8-2.4,2.7-3.6.8-1.1,2.1-2.3,2.4-3.6.6-2.4-1.7-3.6-3.7-3.4-2.7.2-4.9,1.5-7.1,3-1.6,1.1,0,3.7,1.5,2.6,1.1-.8,2.2-1.6,3.5-2.1.6-.2,1.2-.4,1.8-.5.2,0,.5-.1.7,0q.3-.2,0,0c-.2.2-.3.4-.5.7-1.8,2.3-3.5,4.6-5.2,7-3.4,4.7-6.8,9.4-10.1,14.1-6.3,9.2-12.3,18.6-17.8,28.2-10.8,18.8-20,38.5-27.1,58.9-7.7,22.3-13.5,45.5-15.1,69.1-.9,12.9-.7,25.8,0,38.7.6,11.6,1.2,23.3,2.8,34.8,2.9,20.8,8.2,41.8,17.2,60.9.5,1,1,2.1,1.5,3.1.5.9,1.4,2.2,1.6,3.2l.2-1.2h0c0,0,1.2-.3,1.2-.3-1.2-.3-2.5-1.5-3.5-2.2-1.2-.8-2.3-1.7-3.4-2.6-2.1-1.7-4.1-3.5-5.9-5.5-3.8-4-7.2-8.4-10.1-13-6.4-10.3-10.7-21.9-13.9-33.6-6.9-24.7-11.9-50.4-10.9-76.1s6.4-48.7,14.9-71.8c7.4-20.2,16.9-39.6,28.8-57.6,11.8-17.8,26.2-34,42.8-47.4,2.1-1.7,4.3-3.3,6.4-4.9,1.5-1.1,0-3.7-1.5-2.6h.3Z"/>
    </g>
    <g>
      <path d="M523.1,38c-40.2,29.3-66.2,72.9-81.9,119.4-7.6,22.6-12.1,47.3-12.1,71.2s3.4,37.8,7.8,56.3c3.3,13.8,7.1,27.6,13.7,40.2s15.3,23.1,27.1,30.2c.5.3,1-.2.8-.7-11.5-21.1-19.4-53.9-21.3-77.2-2.5-31-4-62,2.4-92,12.1-56,35.9-101.4,71.8-148.2.7-.9,0-2.1-1.1-2.1-2.7,0-4.6.9-7.3,2.9"/>
      <path d="M522.4,36.7c-17.8,13-33.1,29-45.9,46.9s-23,37.6-31,58.1c-9.1,23-15.3,47.1-17.2,71.9-1,13.1-.6,26.3,1.1,39.4s4.5,26.1,7.8,39c5.8,22.8,14.9,46.2,34.2,60.9,1.1.8,2.2,1.7,3.4,2.4,1,.7,2.3,1.8,3.5,1.7,3.2-.4,1-3.9.2-5.4-2.3-4.6-4.4-9.3-6.2-14.1-4-10.5-7-21.3-9.4-32.3-2.3-10.6-3.8-21.2-4.6-32-1.1-13.5-1.9-27-1.8-40.5s.9-26.9,3.2-40.1c2.1-11.8,5.1-23.4,8.6-34.8,6.6-21.6,15.5-42.4,26.3-62.2,5.5-10.1,11.5-19.9,17.9-29.5,3.3-4.9,6.7-9.8,10.1-14.6,1.7-2.4,3.5-4.8,5.3-7.2s1.8-2.4,2.7-3.6c.8-1.1,2.1-2.3,2.4-3.6.6-2.4-1.7-3.6-3.7-3.4-2.7.2-4.9,1.5-7.1,3-1.6,1.1,0,3.7,1.5,2.6,1.1-.8,2.2-1.6,3.5-2.1.6-.2,1.2-.4,1.8-.5.2,0,.5-.1.7,0q.3-.2,0,0c-.2.2-.3.4-.5.7-1.8,2.3-3.5,4.6-5.2,7-3.4,4.7-6.8,9.4-10.1,14.1-6.3,9.2-12.3,18.6-17.8,28.2-10.8,18.8-20,38.5-27.1,58.9-7.7,22.3-13.5,45.5-15.1,69.1-.9,12.9-.7,25.8,0,38.7.6,11.6,1.2,23.3,2.8,34.8,2.9,20.8,8.2,41.8,17.2,60.9.5,1,1,2.1,1.5,3.1.5.9,1.4,2.2,1.6,3.2l.2-1.2h0c0,0,1.2-.3,1.2-.3-1.2-.3-2.5-1.5-3.5-2.2-1.2-.8-2.3-1.7-3.4-2.6-2.1-1.7-4.1-3.5-5.9-5.5-3.8-4-7.2-8.4-10.1-13-6.4-10.3-10.7-21.9-13.9-33.6-6.9-24.7-11.9-50.4-10.9-76.1s6.4-48.7,14.9-71.8c7.4-20.2,16.9-39.6,28.8-57.6,11.8-17.8,26.2-34,42.8-47.4,2.1-1.7,4.3-3.3,6.4-4.9,1.5-1.1,0-3.7-1.5-2.6h.3Z"/>
    </g>
    <g>
      <path d="M580.6,38.3c-40.2,29.3-66.2,72.9-81.9,119.4-7.6,22.6-12.1,47.3-12.1,71.2s3.4,37.8,7.8,56.3c3.3,13.8,7.1,27.6,13.7,40.2,6.3,12.1,15.3,23.1,27.1,30.2.5.3,1-.2.8-.7-11.5-21.1-19.4-53.9-21.3-77.2-2.5-31-4-62,2.4-92,12.1-56,35.9-101.4,71.8-148.2.7-.9,0-2.1-1.1-2.1-2.7,0-4.6.9-7.3,2.9"/>
      <path d="M579.9,37c-17.8,13-33.1,29-45.9,46.9s-23,37.6-31,58.1c-9.1,23-15.3,47.1-17.2,71.9-1,13.1-.6,26.3,1.1,39.4s4.5,26.1,7.8,39c5.8,22.8,14.9,46.2,34.2,60.9,1.1.8,2.2,1.7,3.4,2.4,1,.7,2.3,1.8,3.5,1.7,3.2-.4,1-3.9.2-5.4-2.3-4.6-4.4-9.3-6.2-14.1-4-10.5-7-21.3-9.4-32.3s-3.8-21.2-4.6-32c-1.1-13.5-1.9-27-1.8-40.5s.9-26.9,3.2-40.1c2.1-11.8,5.1-23.4,8.6-34.8,6.6-21.6,15.5-42.4,26.3-62.2,5.5-10.1,11.5-19.9,17.9-29.5,3.3-4.9,6.7-9.8,10.1-14.6,1.7-2.4,3.5-4.8,5.3-7.2s1.8-2.4,2.7-3.6c.8-1.1,2.1-2.3,2.4-3.6.6-2.4-1.7-3.6-3.7-3.4-2.7.2-4.9,1.5-7.1,3-1.6,1.1,0,3.7,1.5,2.6,1.1-.8,2.2-1.6,3.5-2.1.6-.2,1.2-.4,1.8-.5.2,0,.5-.1.7,0q.3-.2,0,0c-.2.2-.3.4-.5.7-1.8,2.3-3.5,4.6-5.2,7-3.4,4.7-6.8,9.4-10.1,14.1-6.3,9.2-12.3,18.6-17.8,28.2-10.8,18.8-20,38.5-27.1,58.9-7.7,22.3-13.5,45.5-15.1,69.1-.9,12.9-.7,25.8,0,38.7.6,11.6,1.2,23.3,2.8,34.8,2.9,20.8,8.2,41.8,17.2,60.9.5,1,1,2.1,1.5,3.1.5.9,1.4,2.2,1.6,3.2l.2-1.2h0c0,0,1.2-.3,1.2-.3-1.2-.3-2.5-1.5-3.5-2.2-1.2-.8-2.3-1.7-3.4-2.6-2.1-1.7-4.1-3.5-5.9-5.5-3.8-4-7.2-8.4-10.1-13-6.4-10.3-10.7-21.9-13.9-33.6-6.9-24.7-11.9-50.4-10.9-76.1s6.4-48.7,14.9-71.8c7.4-20.2,16.9-39.6,28.8-57.6,11.8-17.8,26.2-34,42.8-47.4,2.1-1.7,4.3-3.3,6.4-4.9,1.5-1.1,0-3.7-1.5-2.6h.3Z"/>
    </g>
  </g>
  <g id="Layer_7">
    <polygon class="st0" points="162.6 138.7 292.2 100.6 277 127.5 234.1 160.9 162.6 138.7"/>
  </g>
</svg>